<svg width="180" height="180" viewBox="0 0 180 180" fill="none" xmlns="http://www.w3.org/2000/svg">
<rect width="180" height="180" rx="32" fill="url(#paint0_linear_287_4)"/>
<path d="M37 99.9122C37 99.9122 45.3684 103.632 56.5264 120.369C56.5264 120.369 58.1155 117.686 61.1085 113.409M115.105 59C102.321 65.3922 88.9507 78.8154 78.2168 91.4824Z" fill="url(#paint1_linear_287_4)"/>
<path d="M37 99.9122C37 99.9122 45.3684 103.632 56.5264 120.369C56.5264 120.369 58.1155 117.686 61.1085 113.409M115.105 59C102.321 65.3922 88.9507 78.8154 78.2168 91.4824" stroke="white" stroke-opacity="0.7" stroke-width="10" stroke-linecap="round" stroke-linejoin="round"/>
<path d="M64.8943 99.9122C64.8943 99.9122 73.2627 103.632 84.4206 120.369C84.4206 120.369 115.105 72.9474 143 59" stroke="white" stroke-width="10" stroke-linecap="round" stroke-linejoin="round"/>
<defs>
<linearGradient id="paint0_linear_287_4" x1="90" y1="0" x2="90" y2="180" gradientUnits="userSpaceOnUse">
<stop stop-color="#1E1448" stop-opacity="0.7"/>
<stop offset="1" stop-color="#1E1448"/>
</linearGradient>
<linearGradient id="paint1_linear_287_4" x1="76.0527" y1="59" x2="76.0527" y2="120.369" gradientUnits="userSpaceOnUse">
<stop stop-color="#211230" stop-opacity="0.7"/>
<stop offset="1" stop-color="#211230"/>
</linearGradient>
</defs>
</svg>
